<svg xmlns="http://www.w3.org/2000/svg" viewBox="0 0 100 100"><defs><style>.cls-1{fill:#e3ba14;}.cls-2{fill:#fff;}</style></defs><title>1024_100</title><g id="Case_100"><rect class="cls-1" width="100" height="100"/></g><g id="Number_100"><path class="cls-2" d="M23.86,62.36h-4.8V44.27a16.65,16.65,0,0,1-6.2,3.64V43.55a14,14,0,0,0,4.08-2.33,8.82,8.82,0,0,0,3-4h3.9Z"/><path class="cls-2" d="M39.16,37.21a6.84,6.84,0,0,1,5.69,2.6q2.44,3.07,2.44,10.2T44.83,60.23a6.84,6.84,0,0,1-5.67,2.56A7.18,7.18,0,0,1,33.26,60Q31,57.18,31,50t2.46-10.19A6.84,6.84,0,0,1,39.16,37.21Zm0,4a2.43,2.43,0,0,0-1.56.56,3.75,3.75,0,0,0-1.06,2A27.53,27.53,0,0,0,36.05,50a27.12,27.12,0,0,0,.44,6.06,4.24,4.24,0,0,0,1.12,2.19,2.44,2.44,0,0,0,3.1,0,3.68,3.68,0,0,0,1.06-2,27.12,27.12,0,0,0,.5-6.25A26.94,26.94,0,0,0,41.82,44a4.25,4.25,0,0,0-1.12-2.2A2.36,2.36,0,0,0,39.16,41.19Z"/><path class="cls-2" d="M66.72,57.9v4.46H49.89a11.6,11.6,0,0,1,1.64-4.79,31.93,31.93,0,0,1,5.4-6,33.64,33.64,0,0,0,4-4.1,5.28,5.28,0,0,0,1-2.94A3.33,3.33,0,0,0,61,42.05a3.25,3.25,0,0,0-2.38-.86,3.2,3.2,0,0,0-2.4.91,4.63,4.63,0,0,0-1,3l-4.79-.47c.29-2.65,1.18-4.54,2.69-5.7a9,9,0,0,1,5.64-1.72,8.1,8.1,0,0,1,5.82,2,6.53,6.53,0,0,1,2.12,5,8.73,8.73,0,0,1-.6,3.22,13.32,13.32,0,0,1-1.93,3.21,31.21,31.21,0,0,1-3.14,3.19c-1.52,1.39-2.48,2.32-2.88,2.77a8.19,8.19,0,0,0-1,1.33Z"/><path class="cls-2" d="M79.39,62.36v-5H69.13v-4.2L80,37.21h4V53.1h3.11v4.22H84v5Zm0-9.26V44.54L73.63,53.1Z"/></g></svg>