<svg xmlns="http://www.w3.org/2000/svg" viewBox="0 0 200 200"><defs><style>.cls-1{fill:#e3ba14;}.cls-2{fill:#fff;}</style></defs><title>1024_200</title><g id="Case_200"><rect class="cls-1" width="200" height="200"/></g><g id="Number_200"><path class="cls-2" d="M47.72,124.73h-9.6V88.53a33.13,33.13,0,0,1-12.41,7.28V87.1a27.76,27.76,0,0,0,8.17-4.67,17.7,17.7,0,0,0,6-8h7.79Z"/><path class="cls-2" d="M78.31,74.42q7.29,0,11.39,5.19,4.89,6.15,4.88,20.41t-4.92,20.44q-4.06,5.12-11.35,5.12A14.34,14.34,0,0,1,66.52,120q-4.47-5.62-4.48-20Q62,85.77,67,79.54,71,74.42,78.31,74.42Zm0,8a4.82,4.82,0,0,0-3.11,1.11,7.46,7.46,0,0,0-2.11,4q-1,3.73-1,12.55T73,112.13q.88,3.3,2.24,4.4a4.76,4.76,0,0,0,3.09,1.09,4.83,4.83,0,0,0,3.12-1.11,7.46,7.46,0,0,0,2.11-4q1-3.69,1-12.51T83.65,87.9c-.6-2.2-1.34-3.67-2.24-4.41A4.74,4.74,0,0,0,78.31,82.38Z"/><path class="cls-2" d="M133.45,115.81v8.92H99.78a23.19,23.19,0,0,1,3.28-9.59q2.73-4.53,10.8-12,6.49-6.06,8-8.21a10.58,10.58,0,0,0,2-5.87,6.68,6.68,0,0,0-1.73-4.94,6.45,6.45,0,0,0-4.77-1.73,6.38,6.38,0,0,0-4.78,1.81c-1.19,1.21-1.87,3.21-2,6l-9.57-1c.56-5.29,2.36-9.08,5.36-11.38a18,18,0,0,1,11.28-3.45q7.42,0,11.66,4a13.12,13.12,0,0,1,4.24,9.94,17.32,17.32,0,0,1-1.22,6.45,26.43,26.43,0,0,1-3.84,6.4,61.59,61.59,0,0,1-6.29,6.39c-3,2.79-4.95,4.63-5.76,5.54a16.26,16.26,0,0,0-2,2.67Z"/><path class="cls-2" d="M158.77,124.73V114.65H138.26v-8.41L160,74.42h8.07V106.2h6.22v8.45h-6.22v10.08Zm0-18.53V89.08L147.25,106.2Z"/></g></svg>