<svg xmlns="http://www.w3.org/2000/svg" viewBox="0 0 100 100"><defs><style>.cls-1{fill:#f4d86d;}.cls-2{fill:#fff;}</style></defs><title>128_100</title><g id="Case_100"><rect class="cls-1" width="100" height="100"/></g><g id="Number_100"><path class="cls-2" d="M29.4,65.89H23.23V42.62a21.33,21.33,0,0,1-8,4.68V41.69a17.54,17.54,0,0,0,5.25-3,11.32,11.32,0,0,0,3.89-5.15h5Z"/><path class="cls-2" d="M59.48,60.15v5.74H37.84A14.74,14.74,0,0,1,40,59.72,40.89,40.89,0,0,1,46.89,52,44,44,0,0,0,52,46.73,6.81,6.81,0,0,0,53.28,43a4.3,4.3,0,0,0-1.11-3.18,4.7,4.7,0,0,0-6.14.06,6,6,0,0,0-1.32,3.86l-6.15-.61Q39.11,38,42,35.76a11.59,11.59,0,0,1,7.25-2.22,10.52,10.52,0,0,1,7.5,2.57,8.47,8.47,0,0,1,2.72,6.4,11.12,11.12,0,0,1-.78,4.14,16.87,16.87,0,0,1-2.47,4.12,41.18,41.18,0,0,1-4,4.11c-1.95,1.79-3.19,3-3.71,3.56a10.09,10.09,0,0,0-1.26,1.71Z"/><path class="cls-2" d="M69,48.51a6.92,6.92,0,0,1-4.57-6.66,7.81,7.81,0,0,1,2.52-6c1.67-1.56,4.06-2.35,7.15-2.35a10.13,10.13,0,0,1,7.13,2.35,7.79,7.79,0,0,1,2.54,6,7,7,0,0,1-1.17,4,7.42,7.42,0,0,1-3.27,2.67,8.53,8.53,0,0,1,4.07,3.14,8.29,8.29,0,0,1,1.4,4.77,9.7,9.7,0,0,1-2.85,7.25,10.33,10.33,0,0,1-7.57,2.79A11.42,11.42,0,0,1,67,64.15a9,9,0,0,1-3.45-7.47,9.29,9.29,0,0,1,1.29-4.8A8.36,8.36,0,0,1,69,48.51Zm.7,7.58a5.66,5.66,0,0,0,1.31,4,4.21,4.21,0,0,0,3.26,1.43,4.13,4.13,0,0,0,3.17-1.37,5.73,5.73,0,0,0,1.25-4,5.1,5.1,0,0,0-1.27-3.63,4.21,4.21,0,0,0-3.23-1.38,3.87,3.87,0,0,0-3.38,1.56A5.73,5.73,0,0,0,69.65,56.09Zm.58-13.8a3.86,3.86,0,0,0,1,2.88,4.28,4.28,0,0,0,5.59,0,3.87,3.87,0,0,0,1.06-2.88,3.73,3.73,0,0,0-1-2.78,3.69,3.69,0,0,0-2.75-1.05,3.81,3.81,0,0,0-2.84,1.06A3.77,3.77,0,0,0,70.23,42.29Z"/></g></svg>