<svg xmlns="http://www.w3.org/2000/svg" viewBox="0 0 200 200"><defs><style>.cls-1{fill:#f4d86d;}.cls-2{fill:#fff;}</style></defs><title>128_200</title><g id="Case_200"><rect class="cls-1" width="200" height="200"/></g><g id="Number_200"><path class="cls-2" d="M58.8,131.77H46.45V85.23a42.54,42.54,0,0,1-16,9.36V83.39a36,36,0,0,0,10.5-6,22.72,22.72,0,0,0,7.78-10.31h10Z"/><path class="cls-2" d="M119,120.3v11.47H75.68a29.72,29.72,0,0,1,4.21-12.32q3.52-5.83,13.89-15.45,8.35-7.78,10.24-10.55a13.59,13.59,0,0,0,2.55-7.56,8.6,8.6,0,0,0-2.22-6.35,9.42,9.42,0,0,0-12.28.11c-1.53,1.56-2.41,4.13-2.64,7.74l-12.3-1.23Q78.22,76,84,71.52t14.51-4.44q9.52,0,15,5.15A16.86,16.86,0,0,1,119,85a22.25,22.25,0,0,1-1.56,8.29,33.87,33.87,0,0,1-4.94,8.24,80.51,80.51,0,0,1-8.09,8.22q-5.85,5.35-7.4,7.12a21.1,21.1,0,0,0-2.53,3.42Z"/><path class="cls-2" d="M137.9,97a13.84,13.84,0,0,1-9.14-13.31,15.6,15.6,0,0,1,5-11.91q5-4.71,14.31-4.71t14.26,4.71a15.53,15.53,0,0,1,5.07,11.91,14.06,14.06,0,0,1-2.32,8A14.79,14.79,0,0,1,158.56,97a17.27,17.27,0,0,1,8.15,6.29,16.61,16.61,0,0,1,2.79,9.53q0,8.92-5.69,14.5t-15.14,5.59q-8.79,0-14.63-4.62-6.9-5.45-6.9-14.94a18.43,18.43,0,0,1,2.59-9.6A16.67,16.67,0,0,1,137.9,97Zm1.41,15.16q0,5.1,2.61,8a8.51,8.51,0,0,0,6.53,2.85,8.2,8.2,0,0,0,6.33-2.74q2.5-2.74,2.5-7.94a10.27,10.27,0,0,0-2.55-7.27,8.43,8.43,0,0,0-6.46-2.74,7.72,7.72,0,0,0-6.74,3.12A11.42,11.42,0,0,0,139.31,112.17Zm1.14-27.59a7.72,7.72,0,0,0,2.09,5.75,7.54,7.54,0,0,0,5.56,2.07,7.64,7.64,0,0,0,5.62-2.09,7.75,7.75,0,0,0,2.11-5.78,7.18,7.18,0,0,0-7.6-7.65A7.7,7.7,0,0,0,142.56,79,7.55,7.55,0,0,0,140.45,84.58Z"/></g></svg>