<svg xmlns="http://www.w3.org/2000/svg" viewBox="0 0 200 200"><defs><style>.cls-1{fill:#ec8d53;}.cls-2{fill:#fff;}</style></defs><title>16_200</title><g id="Case_200"><rect class="cls-1" width="200" height="200"/></g><g id="Number_200"><path class="cls-2" d="M79.72,138.86H64.63V82a51.9,51.9,0,0,1-19.5,11.44V79.72A43.41,43.41,0,0,0,58,72.39,27.85,27.85,0,0,0,67.48,59.8H79.72Z"/><path class="cls-2" d="M153.41,79.4,138.8,81q-.53-4.5-2.79-6.66a8.13,8.13,0,0,0-5.85-2.15,9.92,9.92,0,0,0-8.09,4.3q-3.3,4.31-4.16,17.89a17.64,17.64,0,0,1,14-6.66,21.45,21.45,0,0,1,16.2,7.19q6.74,7.2,6.74,18.59,0,12.08-7.09,19.39t-18.21,7.3A24.37,24.37,0,0,1,110,130.94q-7.68-9.27-7.68-30.38,0-21.65,8-31.2a25.8,25.8,0,0,1,20.78-9.56q9,0,14.85,5T153.41,79.4ZM119.2,112.33q0,7.35,3.39,11.36c2.25,2.66,4.83,4,7.73,4a8.78,8.78,0,0,0,7-3.28q2.79-3.27,2.79-10.74,0-7.68-3-11.25a9.68,9.68,0,0,0-14.88-.16Q119.2,105.67,119.2,112.33Z"/></g></svg>