<svg xmlns="http://www.w3.org/2000/svg" viewBox="0 0 200 200"><defs><style>.cls-1{fill:#ecc400;}.cls-2{fill:#fff;}</style></defs><title>2048_200</title><g id="Case_200"><rect class="cls-1" width="200" height="200"/></g><g id="Number_200"><path class="cls-2" d="M58.25,115.79v8.92H24.58a23.33,23.33,0,0,1,3.28-9.59q2.75-4.52,10.81-12,6.49-6,8-8.2a10.59,10.59,0,0,0,2-5.88,6.69,6.69,0,0,0-1.72-4.94,6.45,6.45,0,0,0-4.77-1.73,6.44,6.44,0,0,0-4.79,1.81c-1.18,1.21-1.87,3.22-2,6l-9.57-1q.86-7.92,5.37-11.38A18,18,0,0,1,42.36,74.4q7.41,0,11.65,4a13.09,13.09,0,0,1,4.24,9.94A17.31,17.31,0,0,1,57,94.79a26.22,26.22,0,0,1-3.85,6.41,61.55,61.55,0,0,1-6.29,6.39c-3,2.78-4.95,4.62-5.76,5.54a16.55,16.55,0,0,0-2,2.66Z"/><path class="cls-2" d="M81,74.4q7.27,0,11.38,5.19,4.89,6.16,4.89,20.41t-4.92,20.44q-4.06,5.13-11.35,5.13a14.33,14.33,0,0,1-11.79-5.63q-4.48-5.61-4.48-20,0-14.16,4.92-20.37Q73.7,74.4,81,74.4Zm0,8a4.8,4.8,0,0,0-3.11,1.11,7.46,7.46,0,0,0-2.12,4q-1,3.72-1,12.54t.89,12.12q.88,3.3,2.24,4.39a4.92,4.92,0,0,0,6.2,0,7.47,7.47,0,0,0,2.12-4q1-3.69,1-12.51t-.89-12.12c-.59-2.2-1.34-3.67-2.23-4.41A4.77,4.77,0,0,0,81,82.36Z"/><path class="cls-2" d="M122.51,124.71V114.63H102v-8.41L123.74,74.4h8.07v31.79H138v8.44h-6.22v10.08Zm0-18.52V89.06L111,106.19Z"/><path class="cls-2" d="M150.84,97.68a11.22,11.22,0,0,1-5.42-4.33,11.34,11.34,0,0,1-1.69-6,12.12,12.12,0,0,1,3.92-9.26q3.9-3.66,11.12-3.66t11.09,3.66a12,12,0,0,1,3.95,9.26,10.9,10.9,0,0,1-1.81,6.2,11.56,11.56,0,0,1-5.09,4.16,13.4,13.4,0,0,1,6.34,4.88,13,13,0,0,1,2.17,7.42A15.09,15.09,0,0,1,171,121.26q-4.43,4.33-11.77,4.34A17.83,17.83,0,0,1,147.83,122a14,14,0,0,1-5.36-11.62,14.34,14.34,0,0,1,2-7.47A13,13,0,0,1,150.84,97.68Zm1.1,11.79a8.79,8.79,0,0,0,2,6.18,6.59,6.59,0,0,0,5.08,2.23,6.39,6.39,0,0,0,4.92-2.14,8.84,8.84,0,0,0,1.95-6.17,8,8,0,0,0-2-5.66,6.55,6.55,0,0,0-5-2.13,6,6,0,0,0-5.25,2.42A8.92,8.92,0,0,0,151.94,109.47ZM152.83,88a6,6,0,0,0,1.62,4.48,5.87,5.87,0,0,0,4.32,1.61,6,6,0,0,0,4.38-1.63A6,6,0,0,0,164.79,88a5.59,5.59,0,0,0-5.92-6,6,6,0,0,0-4.4,1.64A5.85,5.85,0,0,0,152.83,88Z"/></g></svg>