<svg xmlns="http://www.w3.org/2000/svg" viewBox="0 0 100 100"><defs><style>.cls-1{fill:#ecc400;}.cls-2{fill:#fff;}</style></defs><title>2048_100</title><g id="Case_100"><rect class="cls-1" width="100" height="100"/></g><g id="Number_100"><path class="cls-2" d="M29.13,57.9v4.46H12.29a11.59,11.59,0,0,1,1.64-4.8,31.64,31.64,0,0,1,5.4-6,33.39,33.39,0,0,0,4-4.11,5.22,5.22,0,0,0,1-2.94A3.34,3.34,0,0,0,23.44,42a3.23,3.23,0,0,0-2.38-.86,3.17,3.17,0,0,0-2.39.91,4.58,4.58,0,0,0-1,3l-4.78-.48c.28-2.65,1.18-4.54,2.68-5.69a9,9,0,0,1,5.64-1.73,8.19,8.19,0,0,1,5.83,2,6.56,6.56,0,0,1,2.12,5,8.74,8.74,0,0,1-.61,3.22A13.59,13.59,0,0,1,26.6,50.6a30.51,30.51,0,0,1-3.15,3.19c-1.51,1.39-2.47,2.32-2.88,2.77a8.41,8.41,0,0,0-1,1.34Z"/><path class="cls-2" d="M40.49,37.2a6.85,6.85,0,0,1,5.69,2.6q2.45,3.08,2.45,10.2T46.16,60.22a6.81,6.81,0,0,1-5.67,2.56A7.14,7.14,0,0,1,34.6,60q-2.25-2.8-2.24-10t2.46-10.19A6.81,6.81,0,0,1,40.49,37.2Zm0,4a2.38,2.38,0,0,0-1.55.56,3.68,3.68,0,0,0-1.06,2,27.39,27.39,0,0,0-.5,6.27,27.75,27.75,0,0,0,.44,6.06,4.24,4.24,0,0,0,1.12,2.19,2.37,2.37,0,0,0,1.55.55,2.42,2.42,0,0,0,1.56-.55,3.78,3.78,0,0,0,1.05-2A26.56,26.56,0,0,0,43.6,50a27.75,27.75,0,0,0-.44-6.06A4.33,4.33,0,0,0,42,41.74,2.38,2.38,0,0,0,40.49,41.18Z"/><path class="cls-2" d="M61.25,62.36v-5H51v-4.2L61.87,37.2h4V53.09H69v4.22H65.9v5Zm0-9.27V44.53L55.5,53.09Z"/><path class="cls-2" d="M75.42,48.84a5.35,5.35,0,0,1-3.55-5.18A6.07,6.07,0,0,1,73.82,39a7.86,7.86,0,0,1,5.57-1.83A7.83,7.83,0,0,1,84.93,39a6,6,0,0,1,2,4.63,5.48,5.48,0,0,1-.91,3.1,5.68,5.68,0,0,1-2.55,2.08,6.7,6.7,0,0,1,3.17,2.44A6.43,6.43,0,0,1,87.71,55a7.58,7.58,0,0,1-2.21,5.64,8,8,0,0,1-5.89,2.17A8.92,8.92,0,0,1,73.92,61a7,7,0,0,1-2.69-5.81,7.24,7.24,0,0,1,1-3.74A6.46,6.46,0,0,1,75.42,48.84ZM76,54.73a4.45,4.45,0,0,0,1,3.1,3.31,3.31,0,0,0,2.54,1.11A3.2,3.2,0,0,0,82,57.87a4.41,4.41,0,0,0,1-3.08A4,4,0,0,0,82,52a3.29,3.29,0,0,0-2.52-1.07,3,3,0,0,0-2.62,1.21A4.49,4.49,0,0,0,76,54.73ZM76.41,44a3,3,0,0,0,.81,2.24,3.34,3.34,0,0,0,4.35,0A3,3,0,0,0,82.39,44a2.92,2.92,0,0,0-.81-2.16A2.89,2.89,0,0,0,79.44,41a2.82,2.82,0,0,0-3,3Z"/></g></svg>