<svg xmlns="http://www.w3.org/2000/svg" viewBox="0 0 100 100"><defs><style>.cls-1{fill:#f1d04b;}.cls-2{fill:#e4c02a;}.cls-3{fill:#fff;}</style></defs><title>256_100 </title><g id="Case_100"><rect class="cls-1" width="100" height="100"/><rect class="cls-2" width="100" height="100"/><rect class="cls-1" width="100" height="100"/></g><g id="Number_100"><path class="cls-3" d="M35.46,60.16V65.9H13.82a15.08,15.08,0,0,1,2.11-6.17,41,41,0,0,1,7-7.72A42.83,42.83,0,0,0,28,46.74,6.83,6.83,0,0,0,29.27,43a4.3,4.3,0,0,0-1.11-3.18,4.14,4.14,0,0,0-3.07-1.11A4.08,4.08,0,0,0,22,39.84,6,6,0,0,0,20.7,43.7l-6.15-.61Q15.09,38,18,35.77a11.57,11.57,0,0,1,7.25-2.22,10.49,10.49,0,0,1,7.49,2.57,8.44,8.44,0,0,1,2.72,6.4,11.11,11.11,0,0,1-.77,4.14,16.93,16.93,0,0,1-2.48,4.12,39,39,0,0,1-4,4.11c-2,1.79-3.18,3-3.7,3.56a10.5,10.5,0,0,0-1.26,1.71Z"/><path class="cls-3" d="M39.73,57.61,45.88,57a5.3,5.3,0,0,0,1.56,3.3,4.2,4.2,0,0,0,3,1.22,4.13,4.13,0,0,0,3.27-1.57A7.1,7.1,0,0,0,55,55.2a6.47,6.47,0,0,0-1.33-4.45,4.42,4.42,0,0,0-3.46-1.49,6.33,6.33,0,0,0-4.77,2.35l-5-.72,3.17-16.77H60V39.9H48.32l-1,5.47a9.44,9.44,0,0,1,4.22-1,9.3,9.3,0,0,1,7,3,10.78,10.78,0,0,1,2.85,7.76,11.66,11.66,0,0,1-2.3,7.09,10.23,10.23,0,0,1-8.73,4.27,10.8,10.8,0,0,1-7.27-2.4A9.82,9.82,0,0,1,39.73,57.61Z"/><path class="cls-3" d="M85.59,41.57l-6,.66a4.37,4.37,0,0,0-1.14-2.72,3.34,3.34,0,0,0-2.4-.88,4.06,4.06,0,0,0-3.31,1.76q-1.35,1.76-1.7,7.31A7.24,7.24,0,0,1,76.8,45a8.77,8.77,0,0,1,6.62,2.94,10.69,10.69,0,0,1,2.76,7.61,10.92,10.92,0,0,1-2.9,7.93,10.56,10.56,0,0,1-15.47-.8q-3.15-3.79-3.14-12.43,0-8.85,3.27-12.77a10.59,10.59,0,0,1,8.51-3.91,9,9,0,0,1,6.07,2.06A9.66,9.66,0,0,1,85.59,41.57ZM71.59,55A7,7,0,0,0,73,59.69a4.1,4.1,0,0,0,3.17,1.64A3.6,3.6,0,0,0,79,60a6.78,6.78,0,0,0,1.15-4.4A7.13,7.13,0,0,0,78.91,51a4,4,0,0,0-6.09-.07A6.07,6.07,0,0,0,71.59,55Z"/></g></svg>