<svg xmlns="http://www.w3.org/2000/svg" viewBox="0 0 200 200"><defs><style>.cls-1{fill:#f1d04b;}.cls-2{fill:#fff;}</style></defs><title>256_200</title><g id="Case_200"><rect class="cls-1" width="200" height="200"/></g><g id="Number_200"><path class="cls-2" d="M70.93,120.32v11.47H27.64a29.88,29.88,0,0,1,4.22-12.32q3.53-5.82,13.89-15.45Q54.11,96.25,56,93.47a13.53,13.53,0,0,0,2.55-7.55,8.58,8.58,0,0,0-2.22-6.35,8.28,8.28,0,0,0-6.13-2.22A8.19,8.19,0,0,0,44,79.68Q41.75,82,41.4,87.41L29.09,86.18Q30.2,76,36,71.55T50.5,67.11q9.53,0,15,5.14A16.88,16.88,0,0,1,70.93,85a22.24,22.24,0,0,1-1.56,8.28,33.87,33.87,0,0,1-4.94,8.24,80.51,80.51,0,0,1-8.09,8.22q-5.84,5.35-7.4,7.12a20.52,20.52,0,0,0-2.53,3.42Z"/><path class="cls-2" d="M79.46,115.23,91.76,114a10.55,10.55,0,0,0,3.12,6.62,8.5,8.5,0,0,0,6,2.44,8.31,8.31,0,0,0,6.55-3.15q2.67-3.14,2.68-9.47,0-5.92-2.66-8.9a8.9,8.9,0,0,0-6.93-3q-5.31,0-9.53,4.7l-10-1.45,6.33-33.53h32.65V79.81H96.64L94.7,90.75a18.86,18.86,0,0,1,22.37,3.91q5.72,6,5.72,15.51a23.24,23.24,0,0,1-4.62,14.2q-6.28,8.52-17.44,8.52-8.92,0-14.55-4.79A19.69,19.69,0,0,1,79.46,115.23Z"/><path class="cls-2" d="M171.17,83.15l-11.95,1.32A8.72,8.72,0,0,0,156.93,79a6.61,6.61,0,0,0-4.79-1.76,8.09,8.09,0,0,0-6.61,3.51q-2.7,3.53-3.41,14.64A14.42,14.42,0,0,1,153.59,90a17.5,17.5,0,0,1,13.25,5.89q5.52,5.88,5.52,15.2,0,9.89-5.81,15.87a21.13,21.13,0,0,1-30.93-1.61q-6.28-7.57-6.28-24.85,0-17.71,6.54-25.53a21.12,21.12,0,0,1,17-7.82A18.06,18.06,0,0,1,165,71.22Q169.86,75.33,171.17,83.15Zm-28,26.94q0,6,2.77,9.29a8.13,8.13,0,0,0,6.32,3.27A7.21,7.21,0,0,0,158,120q2.28-2.67,2.28-8.79c0-4.19-.82-7.25-2.46-9.2a7.91,7.91,0,0,0-12.17-.13C144,103.71,143.18,106.45,143.18,110.09Z"/></g></svg>