<svg xmlns="http://www.w3.org/2000/svg" viewBox="0 0 100 100"><defs><style>.cls-1{fill:#eee4da;}.cls-2{fill:#786e65;}</style></defs><title>2_100</title><g id="Case_100"><rect class="cls-1" width="100" height="100"/></g><g id="Number_100"><path class="cls-2" d="M63.23,62.76v7H36.77a18.32,18.32,0,0,1,2.58-7.54q2.15-3.55,8.49-9.44a53.66,53.66,0,0,0,6.26-6.44,8.37,8.37,0,0,0,1.55-4.62,5.26,5.26,0,0,0-1.35-3.88,5.06,5.06,0,0,0-3.75-1.36,5,5,0,0,0-3.76,1.43c-.93.94-1.47,2.52-1.61,4.72l-7.52-.75q.68-6.22,4.22-8.94a14.13,14.13,0,0,1,8.86-2.72q5.82,0,9.16,3.15a10.3,10.3,0,0,1,3.33,7.81,13.51,13.51,0,0,1-1,5.06,20.34,20.34,0,0,1-3,5,48.08,48.08,0,0,1-4.94,5q-3.57,3.28-4.52,4.35a12.8,12.8,0,0,0-1.55,2.1Z"/></g></svg>