<svg xmlns="http://www.w3.org/2000/svg" viewBox="0 0 200 200"><defs><style>.cls-1{fill:#eee4da;}.cls-2{fill:#786e65;}</style></defs><title>2_200</title><g id="Case_200"><rect class="cls-1" width="200" height="200"/></g><g id="Number_200"><path class="cls-2" d="M126.45,125.51v14H73.55a36.49,36.49,0,0,1,5.15-15.07q4.3-7.11,17-18.87,10.2-9.51,12.51-12.89a16.61,16.61,0,0,0,3.12-9.24q0-5.05-2.72-7.76A10.1,10.1,0,0,0,101.1,73a10,10,0,0,0-7.52,2.85q-2.79,2.85-3.22,9.45l-15-1.5q1.34-12.47,8.43-17.89t17.73-5.42q11.65,0,18.31,6.28a20.61,20.61,0,0,1,6.66,15.63,27.26,27.26,0,0,1-1.9,10.13,41.2,41.2,0,0,1-6,10.07,96.15,96.15,0,0,1-9.88,10q-7.14,6.55-9.05,8.7a26.66,26.66,0,0,0-3.09,4.19Z"/></g></svg>