<svg xmlns="http://www.w3.org/2000/svg" viewBox="0 0 100 100"><defs><style>.cls-1{fill:#f57c5f;}.cls-2{fill:#fff;}</style></defs><title>32_100</title><g id="Case_100"><rect class="cls-1" width="100" height="100"/></g><g id="Number_100"><path class="cls-2" d="M21.83,59l7.3-.88A7,7,0,0,0,31,62.37a5.16,5.16,0,0,0,3.71,1.47,5.07,5.07,0,0,0,3.93-1.77,6.84,6.84,0,0,0,1.6-4.78,6.4,6.4,0,0,0-1.53-4.51A4.88,4.88,0,0,0,35,51.11a13.1,13.1,0,0,0-3.47.57l.84-6.15A6.63,6.63,0,0,0,37,44.2a4.75,4.75,0,0,0,1.61-3.75,4.06,4.06,0,0,0-4.32-4.35A4.56,4.56,0,0,0,31,37.45a6.27,6.27,0,0,0-1.66,3.92l-7-1.19a15.71,15.71,0,0,1,2.19-5.7,9.93,9.93,0,0,1,4.08-3.36,13.82,13.82,0,0,1,5.87-1.22,11.72,11.72,0,0,1,8.92,3.54A9.28,9.28,0,0,1,46.21,40q0,5.18-5.66,8.27A9.13,9.13,0,0,1,46,51.52a9.42,9.42,0,0,1,2,6.09,11.85,11.85,0,0,1-3.79,8.84,13.08,13.08,0,0,1-9.43,3.65A13,13,0,0,1,25.91,67,12.08,12.08,0,0,1,21.83,59Z"/><path class="cls-2" d="M78.17,62.42v7H51.72A18,18,0,0,1,54.3,61.9q2.14-3.57,8.48-9.44A53.46,53.46,0,0,0,69,46a8.31,8.31,0,0,0,1.56-4.62,5.24,5.24,0,0,0-1.36-3.88,5.77,5.77,0,0,0-7.5.07c-.94,1-1.47,2.52-1.62,4.73l-7.52-.76q.67-6.22,4.22-8.94a14.14,14.14,0,0,1,8.86-2.71q5.83,0,9.16,3.14a10.32,10.32,0,0,1,3.33,7.82,13.7,13.7,0,0,1-1,5.06,20.61,20.61,0,0,1-3,5,48.28,48.28,0,0,1-5,5c-2.38,2.18-3.88,3.63-4.52,4.35a12.25,12.25,0,0,0-1.54,2.09Z"/></g></svg>