<svg xmlns="http://www.w3.org/2000/svg" viewBox="0 0 200 200"><defs><style>.cls-1{fill:#f57c5f;}.cls-2{fill:#fff;}</style></defs><title>32_200</title><g id="Case_200"><rect class="cls-1" width="200" height="200"/></g><g id="Number_200"><path class="cls-2" d="M43.66,118l14.61-1.78q.69,5.59,3.76,8.54a10.28,10.28,0,0,0,7.41,3,10.17,10.17,0,0,0,7.87-3.55q3.19-3.54,3.19-9.56,0-5.68-3.06-9A9.76,9.76,0,0,0,70,102.23a25.94,25.94,0,0,0-6.92,1.13l1.66-12.3q6.12.15,9.35-2.66a9.46,9.46,0,0,0,3.22-7.49,8.58,8.58,0,0,0-2.36-6.34,8.49,8.49,0,0,0-6.29-2.37A9.07,9.07,0,0,0,62,74.89q-2.74,2.69-3.33,7.84L44.79,80.37A31,31,0,0,1,49.16,69a19.77,19.77,0,0,1,8.17-6.72A27.39,27.39,0,0,1,69.06,59.8q11.11,0,17.83,7.09A18.48,18.48,0,0,1,92.43,80q0,10.37-11.34,16.55A18.33,18.33,0,0,1,91.92,103a18.91,18.91,0,0,1,4,12.2A23.64,23.64,0,0,1,88.4,132.9a26.1,26.1,0,0,1-18.86,7.3q-10.68,0-17.72-6.15A24.15,24.15,0,0,1,43.66,118Z"/><path class="cls-2" d="M156.34,124.84v14h-52.9a36.49,36.49,0,0,1,5.15-15.07q4.3-7.11,17-18.88,10.22-9.5,12.52-12.89a16.56,16.56,0,0,0,3.12-9.23q0-5.06-2.72-7.77A10.15,10.15,0,0,0,131,72.31a10,10,0,0,0-7.52,2.85q-2.79,2.85-3.22,9.45l-15-1.5q1.33-12.47,8.43-17.89t17.73-5.42q11.65,0,18.31,6.28a20.61,20.61,0,0,1,6.66,15.63,27.26,27.26,0,0,1-1.9,10.13,41.51,41.51,0,0,1-6.05,10.07,97.16,97.16,0,0,1-9.88,10q-7.14,6.55-9,8.7a26.21,26.21,0,0,0-3.09,4.19Z"/></g></svg>