<svg xmlns="http://www.w3.org/2000/svg" viewBox="0 0 200 200"><defs><style>.cls-1{fill:#60d996;}.cls-2{fill:#fff;}</style></defs><title>4096_200</title><g id="Case_200"><rect class="cls-1" width="200" height="200"/></g><g id="Number_200"><path class="cls-2" d="M44.54,124.71V114.63H24v-8.41L45.77,74.4h8.07v31.79h6.22v8.44H53.84v10.08Zm0-18.52V89.06L33,106.19Z"/><path class="cls-2" d="M80.88,74.4q7.28,0,11.38,5.19,4.89,6.16,4.88,20.41t-4.92,20.44q-4.06,5.13-11.34,5.13a14.36,14.36,0,0,1-11.8-5.63q-4.47-5.61-4.47-20,0-14.16,4.92-20.37Q73.6,74.4,80.88,74.4Zm0,8a4.83,4.83,0,0,0-3.12,1.11,7.46,7.46,0,0,0-2.11,4q-1,3.72-1,12.54t.89,12.12q.88,3.3,2.24,4.39a4.77,4.77,0,0,0,3.1,1.09A4.82,4.82,0,0,0,84,116.49a7.46,7.46,0,0,0,2.11-4q1-3.69,1-12.51t-.89-12.12c-.6-2.2-1.34-3.67-2.24-4.41A4.73,4.73,0,0,0,80.88,82.36Z"/><path class="cls-2" d="M103.78,113.13l9.29-1a6.71,6.71,0,0,0,1.78,4.2,5.24,5.24,0,0,0,3.79,1.37,6.18,6.18,0,0,0,5.06-2.73q2.08-2.75,2.67-11.35a11.49,11.49,0,0,1-9.06,4.2,13.54,13.54,0,0,1-10.2-4.56q-4.29-4.56-4.29-11.88,0-7.62,4.53-12.28a15.34,15.34,0,0,1,11.53-4.67,15.51,15.51,0,0,1,12.51,5.9q4.89,5.9,4.89,19.39,0,13.74-5.09,19.83a16.5,16.5,0,0,1-13.26,6.08,14,14,0,0,1-9.5-3.13Q104.8,119.35,103.78,113.13Zm21.74-21c0-3.1-.72-5.5-2.14-7.21a6.32,6.32,0,0,0-4.94-2.57A5.53,5.53,0,0,0,114,84.47q-1.76,2.1-1.76,6.88c0,3.24.64,5.61,1.92,7.13a6.12,6.12,0,0,0,9.45.08C124.88,97.11,125.52,95,125.52,92.14Z"/><path class="cls-2" d="M175,86.88l-9.3,1A6.78,6.78,0,0,0,164,83.66a5.2,5.2,0,0,0-3.73-1.37A6.29,6.29,0,0,0,155.1,85q-2.1,2.73-2.65,11.38a11.23,11.23,0,0,1,8.92-4.24,13.66,13.66,0,0,1,10.31,4.58A16.62,16.62,0,0,1,176,108.58q0,7.69-4.51,12.34a16.42,16.42,0,0,1-24.06-1.25q-4.89-5.9-4.89-19.33,0-13.77,5.1-19.86a16.44,16.44,0,0,1,13.22-6.08,14,14,0,0,1,9.45,3.19Q174,80.8,175,86.88Zm-21.77,21q0,4.68,2.15,7.23a6.37,6.37,0,0,0,4.93,2.54,5.61,5.61,0,0,0,4.44-2.08q1.77-2.08,1.77-6.84c0-3.26-.63-5.64-1.91-7.16a6.16,6.16,0,0,0-9.47-.1C153.91,102.87,153.27,105,153.27,107.83Z"/></g></svg>