<svg xmlns="http://www.w3.org/2000/svg" viewBox="0 0 100 100"><defs><style>.cls-1{fill:#60d996;}.cls-2{fill:#fff;}</style></defs><title>4096_100</title><g id="Case_100"><rect class="cls-1" width="100" height="100"/></g><g id="Number_100"><path class="cls-2" d="M22.27,62.36v-5H12v-4.2L22.89,37.2h4V53.09H30v4.22H26.92v5Zm0-9.27V44.53l-5.76,8.56Z"/><path class="cls-2" d="M40.44,37.2a6.86,6.86,0,0,1,5.69,2.6q2.44,3.08,2.44,10.2T46.11,60.22a6.84,6.84,0,0,1-5.67,2.56A7.15,7.15,0,0,1,34.54,60q-2.24-2.8-2.24-10t2.46-10.19A6.84,6.84,0,0,1,40.44,37.2Zm0,4a2.43,2.43,0,0,0-1.56.56,3.75,3.75,0,0,0-1.06,2A27.53,27.53,0,0,0,37.33,50a27.12,27.12,0,0,0,.44,6.06,4.24,4.24,0,0,0,1.12,2.19,2.46,2.46,0,0,0,3.1,0,3.72,3.72,0,0,0,1.06-2,27.12,27.12,0,0,0,.5-6.25,26.94,26.94,0,0,0-.45-6.06A4.25,4.25,0,0,0,42,41.74,2.36,2.36,0,0,0,40.44,41.18Z"/><path class="cls-2" d="M51.89,56.56l4.65-.51a3.3,3.3,0,0,0,.89,2.1,2.6,2.6,0,0,0,1.89.69,3.1,3.1,0,0,0,2.53-1.37q1-1.36,1.33-5.68a5.69,5.69,0,0,1-4.52,2.11,6.75,6.75,0,0,1-5.11-2.29,8.31,8.31,0,0,1-2.14-5.93,8.47,8.47,0,0,1,2.26-6.15,8.21,8.21,0,0,1,12,.62q2.44,2.94,2.44,9.7t-2.55,9.91a8.21,8.21,0,0,1-6.63,3,7,7,0,0,1-4.75-1.56A7.54,7.54,0,0,1,51.89,56.56ZM62.76,46.07a5.51,5.51,0,0,0-1.07-3.61,3.17,3.17,0,0,0-2.47-1.28,2.75,2.75,0,0,0-2.21,1,5.35,5.35,0,0,0-.88,3.45,5.53,5.53,0,0,0,.95,3.56,3,3,0,0,0,2.4,1.14,3,3,0,0,0,2.33-1.1A4.79,4.79,0,0,0,62.76,46.07Z"/><path class="cls-2" d="M87.52,43.44,82.87,44A3.36,3.36,0,0,0,82,41.83a2.61,2.61,0,0,0-1.86-.68,3.14,3.14,0,0,0-2.57,1.36c-.7.92-1.14,2.81-1.33,5.7a5.61,5.61,0,0,1,4.46-2.12,6.81,6.81,0,0,1,5.16,2.29A8.27,8.27,0,0,1,88,54.29a8.5,8.5,0,0,1-2.25,6.17,8.23,8.23,0,0,1-12-.62q-2.45-3-2.45-9.67,0-6.89,2.55-9.93a8.21,8.21,0,0,1,6.61-3,7,7,0,0,1,4.73,1.6A7.49,7.49,0,0,1,87.52,43.44ZM76.63,53.91a5.45,5.45,0,0,0,1.08,3.62,3.17,3.17,0,0,0,2.46,1.27,2.8,2.8,0,0,0,2.22-1,5.23,5.23,0,0,0,.89-3.42,5.55,5.55,0,0,0-1-3.58,3.08,3.08,0,0,0-4.74,0A4.69,4.69,0,0,0,76.63,53.91Z"/></g></svg>