<svg xmlns="http://www.w3.org/2000/svg" viewBox="0 0 100 100"><defs><style>.cls-1{fill:#e4c02a;}.cls-2{fill:#fff;}</style></defs><title>512_100</title><g id="Case_100"><rect class="cls-1" width="100" height="100"/></g><g id="Number_100"><path class="cls-2" d="M14.59,57.61,20.74,57a5.3,5.3,0,0,0,1.56,3.3,4.21,4.21,0,0,0,3,1.22,4.16,4.16,0,0,0,3.28-1.57,7.16,7.16,0,0,0,1.34-4.73,6.52,6.52,0,0,0-1.33-4.45,4.44,4.44,0,0,0-3.46-1.49,6.29,6.29,0,0,0-4.77,2.35l-5-.72L18.5,34.12H34.83V39.9H23.18l-1,5.47a9.4,9.4,0,0,1,4.21-1,9.3,9.3,0,0,1,7,3,10.78,10.78,0,0,1,2.86,7.76A11.6,11.6,0,0,1,34,62.18a10.22,10.22,0,0,1-8.72,4.27A10.83,10.83,0,0,1,18,64.05,9.9,9.9,0,0,1,14.59,57.61Z"/><path class="cls-2" d="M55.33,65.9H49.15V42.63a21.21,21.21,0,0,1-8,4.68v-5.6a18,18,0,0,0,5.25-3,11.47,11.47,0,0,0,3.89-5.16h5Z"/><path class="cls-2" d="M85.41,60.16V65.9H63.77a14.79,14.79,0,0,1,2.11-6.17A40.89,40.89,0,0,1,72.82,52a44,44,0,0,0,5.12-5.27A6.81,6.81,0,0,0,79.21,43a4.3,4.3,0,0,0-1.11-3.18,4.7,4.7,0,0,0-6.14.06,6,6,0,0,0-1.32,3.86l-6.15-.61Q65,38,67.94,35.77a11.57,11.57,0,0,1,7.25-2.22,10.48,10.48,0,0,1,7.49,2.57,8.44,8.44,0,0,1,2.73,6.4,11.12,11.12,0,0,1-.78,4.14,17.19,17.19,0,0,1-2.47,4.12,40.44,40.44,0,0,1-4,4.11c-1.94,1.79-3.18,3-3.7,3.56a10.5,10.5,0,0,0-1.26,1.71Z"/></g></svg>