<svg xmlns="http://www.w3.org/2000/svg" viewBox="0 0 200 200"><defs><style>.cls-1{fill:#e4c02a;}.cls-2{fill:#fff;}</style></defs><title>512_200</title><g id="Case_200"><rect class="cls-1" width="200" height="200"/></g><g id="Number_200"><path class="cls-2" d="M29.18,115.23,41.49,114a10.55,10.55,0,0,0,3.12,6.62,8.47,8.47,0,0,0,6,2.44,8.29,8.29,0,0,0,6.55-3.15q2.68-3.14,2.68-9.47,0-5.92-2.66-8.9a8.87,8.87,0,0,0-6.92-3q-5.31,0-9.54,4.7l-10-1.45L37,68.25H69.66V79.81H46.36L44.43,90.75A18.86,18.86,0,0,1,66.8,94.66q5.72,6,5.71,15.51a23.3,23.3,0,0,1-4.61,14.2q-6.29,8.52-17.45,8.52-8.93,0-14.54-4.79A19.7,19.7,0,0,1,29.18,115.23Z"/><path class="cls-2" d="M110.66,131.79H98.31V85.26a42.58,42.58,0,0,1-16,9.36V83.41a35.43,35.43,0,0,0,10.51-6,22.81,22.81,0,0,0,7.78-10.3h10Z"/><path class="cls-2" d="M170.82,120.32v11.47H127.53a29.88,29.88,0,0,1,4.22-12.32q3.51-5.82,13.89-15.45,8.34-7.77,10.24-10.55a13.52,13.52,0,0,0,2.54-7.55,8.62,8.62,0,0,0-2.21-6.35,9.44,9.44,0,0,0-12.29.11q-2.28,2.32-2.63,7.73L129,86.18q1.1-10.2,6.9-14.63t14.5-4.44q9.54,0,15,5.14A16.88,16.88,0,0,1,170.82,85a22.24,22.24,0,0,1-1.56,8.28,33.61,33.61,0,0,1-4.95,8.24,80.14,80.14,0,0,1-8.08,8.22q-5.85,5.35-7.41,7.12a21,21,0,0,0-2.52,3.42Z"/></g></svg>