<svg xmlns="http://www.w3.org/2000/svg" viewBox="0 0 100 100"><defs><style>.cls-1{fill:#e95839;}.cls-2{fill:#fff;}</style></defs><title>64_100</title><g id="Case_100"><rect class="cls-1" width="100" height="100"/></g><g id="Number_100"><path class="cls-2" d="M46.78,39.7l-7.31.81a5.3,5.3,0,0,0-1.39-3.33,4.08,4.08,0,0,0-2.93-1.08,5,5,0,0,0-4,2.15c-1.1,1.43-1.8,4.41-2.08,8.94a8.81,8.81,0,0,1,7-3.33,10.68,10.68,0,0,1,8.09,3.6,13,13,0,0,1,3.37,9.29A13.36,13.36,0,0,1,44,66.45a12.17,12.17,0,0,1-9.11,3.65,12.17,12.17,0,0,1-9.8-4.63q-3.84-4.63-3.84-15.19,0-10.81,4-15.6a12.91,12.91,0,0,1,10.4-4.78A11,11,0,0,1,43,32.41,11.76,11.76,0,0,1,46.78,39.7ZM29.67,56.16a8.52,8.52,0,0,0,1.69,5.68,5,5,0,0,0,3.87,2,4.39,4.39,0,0,0,3.49-1.63q1.39-1.65,1.4-5.38t-1.51-5.62a4.83,4.83,0,0,0-7.44-.08A7.39,7.39,0,0,0,29.67,56.16Z"/><path class="cls-2" d="M66.6,69.43V61.51H50.48V54.9l17.08-25H73.9v25h4.89v6.64H73.9v7.92Zm0-14.56V41.42l-9,13.45Z"/></g></svg>