<svg xmlns="http://www.w3.org/2000/svg" viewBox="0 0 200 200"><defs><style>.cls-1{fill:#e95839;}.cls-2{fill:#fff;}</style></defs><title>64_200</title><g id="Case_200"><rect class="cls-1" width="200" height="200"/></g><g id="Number_200"><path class="cls-2" d="M93.55,79.4,79,81q-.54-4.5-2.8-6.66A8.13,8.13,0,0,0,70.3,72.2a9.92,9.92,0,0,0-8.09,4.3q-3.3,4.31-4.16,17.89a17.64,17.64,0,0,1,14-6.66,21.45,21.45,0,0,1,16.2,7.19Q95,102.12,95,113.51q0,12.08-7.09,19.39t-18.21,7.3a24.37,24.37,0,0,1-19.61-9.26q-7.68-9.27-7.68-30.38,0-21.65,8-31.2A25.8,25.8,0,0,1,71.21,59.8q9,0,14.85,5T93.55,79.4ZM59.34,112.33q0,7.35,3.39,11.36c2.25,2.66,4.83,4,7.73,4a8.78,8.78,0,0,0,7-3.28q2.79-3.27,2.79-10.74,0-7.68-3-11.25a9.68,9.68,0,0,0-14.88-.16Q59.34,105.67,59.34,112.33Z"/><path class="cls-2" d="M133.19,138.86V123H101V109.8l34.16-50H147.8v50h9.78V123H147.8v15.84Zm0-29.11V82.84l-18.1,26.91Z"/></g></svg>