<svg xmlns="http://www.w3.org/2000/svg" viewBox="0 0 100 100"><defs><style>.cls-1{fill:#f2b179;}.cls-2{fill:#fff;}</style></defs><title>8_100</title><g id="Case_100"><rect class="cls-1" width="100" height="100"/></g><g id="Number_100"><path class="cls-2" d="M43.64,48.17A8.43,8.43,0,0,1,38.05,40a9.49,9.49,0,0,1,3.08-7.28c2-1.92,5-2.87,8.74-2.87s6.64.95,8.71,2.87A9.47,9.47,0,0,1,61.68,40a8.57,8.57,0,0,1-1.42,4.87,9,9,0,0,1-4,3.26,10.61,10.61,0,0,1,5,3.84,10.16,10.16,0,0,1,1.7,5.83,11.83,11.83,0,0,1-3.47,8.86,12.63,12.63,0,0,1-9.25,3.41,14,14,0,0,1-8.95-2.82,11,11,0,0,1-4.21-9.13,11.22,11.22,0,0,1,1.58-5.86A10.19,10.19,0,0,1,43.64,48.17Zm.86,9.27a6.94,6.94,0,0,0,1.59,4.86,5.22,5.22,0,0,0,4,1.75A5,5,0,0,0,54,62.37a7,7,0,0,0,1.53-4.85,6.29,6.29,0,0,0-1.56-4.45,5.17,5.17,0,0,0-4-1.67,4.71,4.71,0,0,0-4.12,1.9A7,7,0,0,0,44.5,57.44Zm.69-16.87a4.72,4.72,0,0,0,1.28,3.52,5.24,5.24,0,0,0,6.83,0,4.74,4.74,0,0,0,1.29-3.53A4.38,4.38,0,0,0,50,35.87a4.69,4.69,0,0,0-3.47,1.29A4.61,4.61,0,0,0,45.19,40.57Z"/></g></svg>