<svg xmlns="http://www.w3.org/2000/svg" viewBox="0 0 200 200"><defs><style>.cls-1{fill:#f2b179;}.cls-2{fill:#fff;}</style></defs><title>8_200</title><g id="Case_200"><rect class="cls-1" width="200" height="200"/></g><g id="Number_200"><path class="cls-2" d="M87.27,96.35a17.58,17.58,0,0,1-8.51-6.8,17.76,17.76,0,0,1-2.66-9.48,19.05,19.05,0,0,1,6.15-14.55q6.15-5.74,17.48-5.75t17.43,5.75a19,19,0,0,1,6.21,14.55,17.13,17.13,0,0,1-2.85,9.75,18.09,18.09,0,0,1-8,6.53,21.05,21.05,0,0,1,10,7.68,20.33,20.33,0,0,1,3.41,11.65q0,10.91-7,17.73t-18.5,6.82q-10.74,0-17.89-5.64-8.43-6.66-8.43-18.26a22.65,22.65,0,0,1,3.17-11.74A20.37,20.37,0,0,1,87.27,96.35ZM89,114.88q0,6.23,3.2,9.72a10.34,10.34,0,0,0,8,3.49,10,10,0,0,0,7.74-3.36c2-2.23,3.06-5.47,3.06-9.69a12.54,12.54,0,0,0-3.12-8.89,10.29,10.29,0,0,0-7.89-3.36q-5.53,0-8.25,3.82A14,14,0,0,0,89,114.88Zm1.4-33.73a9.43,9.43,0,0,0,2.55,7,9.2,9.2,0,0,0,6.79,2.53,9.35,9.35,0,0,0,6.88-2.55,9.5,9.5,0,0,0,2.58-7.07,9.19,9.19,0,0,0-2.56-6.79,9.1,9.1,0,0,0-6.74-2.55A9.36,9.36,0,0,0,93,74.33,9.23,9.23,0,0,0,90.39,81.15Z"/></g></svg>