<svg xmlns="http://www.w3.org/2000/svg" viewBox="0 0 460 460"><defs><style>.cls-1{fill:#bbada0;}.cls-2{fill:#ccc0b4;}</style></defs><title>Grid_460_460</title><g id="Grid_100"><rect class="cls-1" width="460" height="460"/><rect class="cls-2" x="15" y="15" width="100" height="100"/><rect class="cls-2" x="125" y="15" width="100" height="100"/><rect class="cls-2" x="235" y="15" width="100" height="100"/><rect class="cls-2" x="345" y="15" width="100" height="100"/><rect class="cls-2" x="15" y="125" width="100" height="100"/><rect class="cls-2" x="125" y="125" width="100" height="100"/><rect class="cls-2" x="235" y="125" width="100" height="100"/><rect class="cls-2" x="345" y="125" width="100" height="100"/><rect class="cls-2" x="15" y="235" width="100" height="100"/><rect class="cls-2" x="125" y="235" width="100" height="100"/><rect class="cls-2" x="235" y="235" width="100" height="100"/><rect class="cls-2" x="345" y="235" width="100" height="100"/><rect class="cls-2" x="15" y="345" width="100" height="100"/><rect class="cls-2" x="125" y="345" width="100" height="100"/><rect class="cls-2" x="235" y="345" width="100" height="100"/><rect class="cls-2" x="345" y="345" width="100" height="100"/></g></svg>