<svg xmlns="http://www.w3.org/2000/svg" viewBox="0 0 920 920"><defs><style>.cls-1{fill:#bbada0;}.cls-2{fill:#ccc0b4;}</style></defs><title>Grid_920_920</title><g id="Grid_200"><rect class="cls-1" width="920" height="920"/><rect class="cls-2" x="30" y="30" width="200" height="200"/><rect class="cls-2" x="250" y="30" width="200" height="200"/><rect class="cls-2" x="470" y="30" width="200" height="200"/><rect class="cls-2" x="690" y="30" width="200" height="200"/><rect class="cls-2" x="30" y="250" width="200" height="200"/><rect class="cls-2" x="250" y="250" width="200" height="200"/><rect class="cls-2" x="470" y="250" width="200" height="200"/><rect class="cls-2" x="690" y="250" width="200" height="200"/><rect class="cls-2" x="30" y="470" width="200" height="200"/><rect class="cls-2" x="250" y="470" width="200" height="200"/><rect class="cls-2" x="470" y="470" width="200" height="200"/><rect class="cls-2" x="690" y="470" width="200" height="200"/><rect class="cls-2" x="30" y="690" width="200" height="200"/><rect class="cls-2" x="250" y="690" width="200" height="200"/><rect class="cls-2" x="470" y="690" width="200" height="200"/><rect class="cls-2" x="690" y="690" width="200" height="200"/></g></svg>